<mxfile host="app.diagrams.net" modified="2022-04-02T15:36:51.374Z" agent="5.0 (Windows NT 10.0; Win64; x64) AppleWebKit/537.36 (KHTML, like Gecko) Chrome/99.0.4844.74 Safari/537.36" etag="0BLh51pBP59e-0wOrhRn" version="16.5.3" type="github">
  <diagram id="O3pNdnitfqNRwApdqiI0" name="Page-1">
    <mxGraphModel dx="782" dy="475" grid="1" gridSize="10" guides="1" tooltips="1" connect="1" arrows="1" fold="1" page="1" pageScale="1" pageWidth="827" pageHeight="1169" math="0" shadow="0">
      <root>
        <mxCell id="0" />
        <mxCell id="1" parent="0" />
        <mxCell id="eSxTqJKKt7CwtJe8kttI-71" value="Mindmap" style="swimlane;startSize=20;horizontal=1;containerType=tree;" vertex="1" parent="1">
          <mxGeometry x="100" y="550" width="960" height="780" as="geometry" />
        </mxCell>
        <mxCell id="eSxTqJKKt7CwtJe8kttI-73" value="" style="edgeStyle=entityRelationEdgeStyle;startArrow=none;endArrow=none;segment=10;curved=1;rounded=0;" edge="1" parent="eSxTqJKKt7CwtJe8kttI-71" source="eSxTqJKKt7CwtJe8kttI-76" target="eSxTqJKKt7CwtJe8kttI-78">
          <mxGeometry relative="1" as="geometry" />
        </mxCell>
        <mxCell id="eSxTqJKKt7CwtJe8kttI-74" value="" style="edgeStyle=entityRelationEdgeStyle;startArrow=none;endArrow=none;segment=10;curved=1;rounded=0;" edge="1" parent="eSxTqJKKt7CwtJe8kttI-71" source="eSxTqJKKt7CwtJe8kttI-76" target="eSxTqJKKt7CwtJe8kttI-79">
          <mxGeometry relative="1" as="geometry" />
        </mxCell>
        <mxCell id="eSxTqJKKt7CwtJe8kttI-75" value="" style="edgeStyle=entityRelationEdgeStyle;startArrow=none;endArrow=none;segment=10;curved=1;rounded=0;" edge="1" parent="eSxTqJKKt7CwtJe8kttI-71" source="eSxTqJKKt7CwtJe8kttI-76" target="eSxTqJKKt7CwtJe8kttI-80">
          <mxGeometry relative="1" as="geometry" />
        </mxCell>
        <mxCell id="eSxTqJKKt7CwtJe8kttI-76" value="concurrence" style="ellipse;whiteSpace=wrap;html=1;align=center;treeFolding=1;treeMoving=1;newEdgeStyle={&quot;edgeStyle&quot;:&quot;entityRelationEdgeStyle&quot;,&quot;startArrow&quot;:&quot;none&quot;,&quot;endArrow&quot;:&quot;none&quot;,&quot;segment&quot;:10,&quot;curved&quot;:1};" vertex="1" parent="eSxTqJKKt7CwtJe8kttI-71">
          <mxGeometry x="160" y="60" width="100" height="40" as="geometry" />
        </mxCell>
        <mxCell id="eSxTqJKKt7CwtJe8kttI-78" value="模型的简化" style="whiteSpace=wrap;html=1;shape=partialRectangle;top=0;left=0;bottom=1;right=0;points=[[0,1],[1,1]];fillColor=none;align=center;verticalAlign=bottom;routingCenterY=0.5;snapToPoint=1;autosize=1;treeFolding=1;treeMoving=1;newEdgeStyle={&quot;edgeStyle&quot;:&quot;entityRelationEdgeStyle&quot;,&quot;startArrow&quot;:&quot;none&quot;,&quot;endArrow&quot;:&quot;none&quot;,&quot;segment&quot;:10,&quot;curved&quot;:1};" vertex="1" parent="eSxTqJKKt7CwtJe8kttI-71">
          <mxGeometry x="305" y="28" width="90" height="20" as="geometry" />
        </mxCell>
        <mxCell id="eSxTqJKKt7CwtJe8kttI-79" value="Topic" style="whiteSpace=wrap;html=1;rounded=1;arcSize=50;align=center;verticalAlign=middle;strokeWidth=1;autosize=1;spacing=4;treeFolding=1;treeMoving=1;newEdgeStyle={&quot;edgeStyle&quot;:&quot;entityRelationEdgeStyle&quot;,&quot;startArrow&quot;:&quot;none&quot;,&quot;endArrow&quot;:&quot;none&quot;,&quot;segment&quot;:10,&quot;curved&quot;:1};" vertex="1" parent="eSxTqJKKt7CwtJe8kttI-71">
          <mxGeometry x="20" y="40" width="80" height="20" as="geometry" />
        </mxCell>
        <mxCell id="eSxTqJKKt7CwtJe8kttI-80" value="Branch" style="whiteSpace=wrap;html=1;shape=partialRectangle;top=0;left=0;bottom=1;right=0;points=[[0,1],[1,1]];fillColor=none;align=center;verticalAlign=bottom;routingCenterY=0.5;snapToPoint=1;autosize=1;treeFolding=1;treeMoving=1;newEdgeStyle={&quot;edgeStyle&quot;:&quot;entityRelationEdgeStyle&quot;,&quot;startArrow&quot;:&quot;none&quot;,&quot;endArrow&quot;:&quot;none&quot;,&quot;segment&quot;:10,&quot;curved&quot;:1};" vertex="1" parent="eSxTqJKKt7CwtJe8kttI-71">
          <mxGeometry x="20" y="80" width="72" height="26" as="geometry" />
        </mxCell>
        <mxCell id="eSxTqJKKt7CwtJe8kttI-87" value="" style="edgeStyle=entityRelationEdgeStyle;startArrow=none;endArrow=none;segment=10;curved=1;rounded=0;" edge="1" target="eSxTqJKKt7CwtJe8kttI-88" source="eSxTqJKKt7CwtJe8kttI-76" parent="eSxTqJKKt7CwtJe8kttI-71">
          <mxGeometry relative="1" as="geometry">
            <mxPoint x="340" y="602" as="sourcePoint" />
          </mxGeometry>
        </mxCell>
        <mxCell id="eSxTqJKKt7CwtJe8kttI-88" value="Branch" style="whiteSpace=wrap;html=1;shape=partialRectangle;top=0;left=0;bottom=1;right=0;points=[[0,1],[1,1]];fillColor=none;align=center;verticalAlign=bottom;routingCenterY=0.5;snapToPoint=1;autosize=1;treeFolding=1;treeMoving=1;newEdgeStyle={&quot;edgeStyle&quot;:&quot;entityRelationEdgeStyle&quot;,&quot;startArrow&quot;:&quot;none&quot;,&quot;endArrow&quot;:&quot;none&quot;,&quot;segment&quot;:10,&quot;curved&quot;:1};" vertex="1" parent="eSxTqJKKt7CwtJe8kttI-71">
          <mxGeometry x="320" y="116" width="72" height="26" as="geometry" />
        </mxCell>
        <mxCell id="eSxTqJKKt7CwtJe8kttI-89" value="" style="edgeStyle=entityRelationEdgeStyle;startArrow=none;endArrow=none;segment=10;curved=1;rounded=0;" edge="1" target="eSxTqJKKt7CwtJe8kttI-90" source="eSxTqJKKt7CwtJe8kttI-76" parent="eSxTqJKKt7CwtJe8kttI-71">
          <mxGeometry relative="1" as="geometry">
            <mxPoint x="340" y="602" as="sourcePoint" />
          </mxGeometry>
        </mxCell>
        <mxCell id="eSxTqJKKt7CwtJe8kttI-90" value="Branch" style="whiteSpace=wrap;html=1;shape=partialRectangle;top=0;left=0;bottom=1;right=0;points=[[0,1],[1,1]];fillColor=none;align=center;verticalAlign=bottom;routingCenterY=0.5;snapToPoint=1;autosize=1;treeFolding=1;treeMoving=1;newEdgeStyle={&quot;edgeStyle&quot;:&quot;entityRelationEdgeStyle&quot;,&quot;startArrow&quot;:&quot;none&quot;,&quot;endArrow&quot;:&quot;none&quot;,&quot;segment&quot;:10,&quot;curved&quot;:1};" vertex="1" parent="eSxTqJKKt7CwtJe8kttI-71">
          <mxGeometry x="320" y="152" width="72" height="26" as="geometry" />
        </mxCell>
        <mxCell id="eSxTqJKKt7CwtJe8kttI-96" value="" style="edgeStyle=entityRelationEdgeStyle;startArrow=none;endArrow=none;segment=10;curved=1;rounded=0;" edge="1" target="eSxTqJKKt7CwtJe8kttI-97" source="eSxTqJKKt7CwtJe8kttI-78" parent="eSxTqJKKt7CwtJe8kttI-71">
          <mxGeometry relative="1" as="geometry">
            <mxPoint x="360" y="630" as="sourcePoint" />
          </mxGeometry>
        </mxCell>
        <mxCell id="eSxTqJKKt7CwtJe8kttI-97" value="让一个线程处理同一类的事情，这比处理多种类型的事情效率更高" style="whiteSpace=wrap;html=1;shape=partialRectangle;top=0;left=0;bottom=1;right=0;points=[[0,1],[1,1]];fillColor=none;align=center;verticalAlign=bottom;routingCenterY=0.5;snapToPoint=1;autosize=1;treeFolding=1;treeMoving=1;newEdgeStyle={&quot;edgeStyle&quot;:&quot;entityRelationEdgeStyle&quot;,&quot;startArrow&quot;:&quot;none&quot;,&quot;endArrow&quot;:&quot;none&quot;,&quot;segment&quot;:10,&quot;curved&quot;:1};" vertex="1" parent="eSxTqJKKt7CwtJe8kttI-71">
          <mxGeometry x="460" y="28" width="380" height="20" as="geometry" />
        </mxCell>
        <mxCell id="eSxTqJKKt7CwtJe8kttI-100" value="" style="edgeStyle=entityRelationEdgeStyle;startArrow=none;endArrow=none;segment=10;curved=1;rounded=0;" edge="1" target="eSxTqJKKt7CwtJe8kttI-101" source="eSxTqJKKt7CwtJe8kttI-78" parent="eSxTqJKKt7CwtJe8kttI-71">
          <mxGeometry relative="1" as="geometry">
            <mxPoint x="360" y="630" as="sourcePoint" />
          </mxGeometry>
        </mxCell>
        <mxCell id="eSxTqJKKt7CwtJe8kttI-101" value="模型的简化" style="whiteSpace=wrap;html=1;shape=partialRectangle;top=0;left=0;bottom=1;right=0;points=[[0,1],[1,1]];fillColor=none;align=center;verticalAlign=bottom;routingCenterY=0.5;snapToPoint=1;autosize=1;treeFolding=1;treeMoving=1;newEdgeStyle={&quot;edgeStyle&quot;:&quot;entityRelationEdgeStyle&quot;,&quot;startArrow&quot;:&quot;none&quot;,&quot;endArrow&quot;:&quot;none&quot;,&quot;segment&quot;:10,&quot;curved&quot;:1};" vertex="1" parent="eSxTqJKKt7CwtJe8kttI-71">
          <mxGeometry x="435" y="58" width="90" height="20" as="geometry" />
        </mxCell>
      </root>
    </mxGraphModel>
  </diagram>
</mxfile>
